<svg version="1.0" xmlns="http://www.w3.org/2000/svg" width="309.333" height="309.333" viewBox="0 0 232 232"><path d="M27 57.9c0 .9-4.8 2.6-6.2 2.3-.5-.1-.8.2-.8.7 0 .5-.8 1.2-1.9 1.6-2.9.9-11 9.2-11.7 11.9-.3 1.4-1.1 2.3-1.7 2-.7-.2-1.2.6-1.3 1.8-.1 2-.9 6.4-1.4 7.8-.1.3-.2 1.3-.1 2.2.1 1-.3 2.7-.9 3.9-.8 1.5-.9 1.9-.1 1.5.6-.4 1.1 0 1.1.9 0 1-.5 1.3-1.2.9-1-.6-1-.4 0 .8.9 1.1 1 1.8.2 2.3-.6.3-.7 1.2-.3 1.8 1.3 2 1.4 4.9.2 4.1-.8-.5-.8-.1 0 1.3.7 1.4.7 2.4-.2 3.3-1 1-.9 1.1.2.5 1.1-.6 1.3-.4.8.8-.3.9-.2 1.9.3 2.2.6.4 1 1.2 1 1.8 0 .7-.4.6-1-.3-.5-.8-1-1-1-.4 0 1.6 1 2.3 2.6 1.7.8-.3 1.1-1 .7-1.7-.3-.6-.1-.6.8.1 1.7 1.7 4.3 1.7 3.3 0-.6-.9-.5-.9.7-.1.8.7 3.2 1.1 5.4 1 2.2-.1 4.6.2 5.3.7.7.6 1.2.6 1.2-.1 0-.6 2-.8 5.1-.5 4 .3 4.9.1 4.4-.9-.3-.7.1-.4.9.6.9 1.1 1.6 1.4 1.6.8 0-.8.9-1 2.6-.6 2.1.6 2.5.4 1.9-.7-.6-1.1-.5-1.2.6-.2.7.7 2.1 1.3 3.2 1.3s1.6-.5 1.2-1.3c-.4-.6.1-.3.9.7.9 1.2 1.6 1.4 1.6.7 0-.8.7-1 2.1-.6 1.6.6 2 .4 1.3-.6-.6-1.1-.5-1.2.7-.3.8.6 2.8 1.1 4.4 1 1.7-.1 3.8.2 4.9.7 1.2.6 1.6.6 1.2-.2-.5-.7 1-.9 4.4-.6 4.6.4 5.1.2 6.4-2.3.8-1.5 1.8-2.5 2.3-2.2.4.3 1.1-1.4 1.4-3.8.3-2.4.2-4.5-.2-4.8-.5-.3-.4-1.5 0-2.7.5-1.3.5-3 0-3.9-.5-.9-.6-1.9-.2-2.1.5-.3.6-3.3.5-6.6-.2-3.4-.8-5.9-1.3-5.5-.5.3-.5-.5 0-2 .8-2 .6-2.7-1.2-4.1-1.2-.9-1.7-1.3-1-1 .8.4.8-.1 0-1.9-.7-1.3-1.5-2.2-1.9-2-.5.3-.8.1-.8-.5 0-.5-1.7-2.7-3.7-4.8-2-2.1-3.3-3.3-3-2.6.5.8.1.8-1.7 0-1.3-.7-2.2-1.5-2-1.9.3-.5-.8-.8-2.5-.8-1.6 0-3.2-.4-3.5-.8-.6-1-13.7-.9-15.3.1-.6.4-1.4.1-1.6-.5-.4-1-.8-.9-1.6.2-1 1.3-1.1 1.3-1.1 0s-.1-1.3-1.1 0c-.8 1.1-1.2 1.2-1.6.2-.5-1.4-2.3-1.6-2.3-.3zm1.8 18.9c.8.1 1.1-.2.7-.8-.9-1.4 2.7-.9 3.7.5.5.7.8.6.8 0s.9-1.1 2-1.2c1.3-.1 1.8.2 1.3 1-.4.7.1.6 1.1-.2 1.2-1 2-1.1 2.8-.3.7.7 1.7.8 2.9.2 1.1-.7 2-.7 2.4 0 .3.5 1.5 1 2.6 1 1 0 1.9.5 1.9 1.1 0 .5.5.7 1 .4.6-.3 1.3.1 1.6.9.3.9 1.2 1.6 2 1.6 1.2 0 1.9 1.3 1.2 2.2-.1.2.5 1.4 1.2 2.8s1.4 4.4 1.5 6.6l.2 4.2H38.4c-16.1.1-21.4-.2-21.5-1.1-.2-2.6-.1-12.3.3-13.7.4-2 2.2-3.9 3.1-3.3.4.2.7-.1.7-.6 0-.6.9-1.1 1.9-1.1 1.1 0 2.3-.5 2.7-1.1.3-.6.9-.7 1.3-.3.3.5 1.2 1 1.9 1.2zm127.1 26.9c-.1 3.4 0 68.3 0 70 .1 1 2.6 1.3 9 1.3 8 0 8.9-.2 9.4-2 .3-1.1.1-2-.3-2-.5 0-.5-1.3 0-2.9.5-1.7.4-3.1 0-3.3-.5-.2-.5-1.9-.1-4 .5-2.2.5-3.8-.1-4-.6-.2-.5-1.4.1-3.1.6-1.5.7-2.7.1-2.7-.5 0-.5-1.2 0-2.9.5-1.9.5-3.1-.1-3.3-.7-.2-.7-1.3 0-3.1.6-1.5.7-2.7.1-2.7-.5 0-.5-1.2 0-2.9.5-1.9.5-3.1-.1-3.3-.7-.2-.7-1.3 0-3.1.6-1.5.7-2.7.1-2.7-.8 0-.5-3.8.5-6.8.2-.6.1-1.2-.4-1.2-.8 0-.5-5.9.4-8.7.2-.6-.1-1.3-.6-1.5-.7-.2-.7-1.3 0-3.1s.7-2.7 0-2.7c-.6 0-.7-.5-.4-1 .4-.6-2.7-1-8.4-1H156l-.1 2.7zm-43.5 2.5c-.3.5-.9.6-1.4.3-.5-.3-1.1-.1-1.5.5-.4.6-1.1.8-1.6.5-.5-.4-.9-.1-.9.4 0 .6-.3 1-.7 1-2.1-.3-3.3.2-2.7 1.3.4.6.3.8-.4.4-.6-.3-2.7 1-4.8 2.9-2 1.9-3.3 3.5-2.8 3.5s.5.4-.1.8c-1.5 1.1-5.6 9.4-4.2 8.5.8-.5.8-.2-.1.9s-1 1.8-.2 2.3c.6.3.7 1.1.3 1.8-.4.6-.8 2.4-1 4-.2 2 0 2.6 1 2.1.9-.6.9-.5 0 .7-1.3 1.6-1.2 3.6.1 5.8.6.9.5 1.2-.1.8-.6-.4-1 .6-1.1 2.4 0 1.8.3 2.7 1 2.3.6-.4.6.1-.1 1.4-.8 1.5-.7 2.3.4 3.2 1.2 1 1.2 1.6.4 2.6-.9 1.1-.7 1.5.5 2 .9.3 1.4 1 1.1 1.4-.3.4.9 2.5 2.5 4.5 1.7 2.1 3 4.1 3 4.6s.7.6 1.5.3c.8-.4 1.5-.1 1.5.5s.6 1.1 1.4 1.1c.8 0 1.6.4 1.8 1 .2.5 1.3 1.1 2.5 1.3 1.2.2 2.6.6 2.9 1 .4.4 5.4.7 11 .7 9.8 0 14.9-1.1 16.6-3.5.5-.6.8-.5.8.3 0 1 .4 1 1.6-.2.8-.9 2.2-1.6 3-1.6.8 0 1.2-.5.9-1-.3-.6.1-1 1-1s1.3-.4 1-1c-.3-.6.1-1 .9-1 1 0 1.3-.6.9-1.6-.3-.9 0-2 .8-2.5s.9-.9.4-.9c-.6 0-1.1-1.3-1.1-3-.1-1.8.2-2.7.9-2.3.6.4.7.1.2-.7-1.2-1.9-1.6-7.2-.5-6.5.5.3.4-.8-.2-2.6-.8-2.5-.8-3.3.3-4 1.1-.7 1.1-.9.1-.9-.7 0-1.1-.3-.9-.8.3-.4-.1-1.3-.9-2-1.1-1-1.4-1-1.4 0 0 .9-.2 1-.8.2-.8-1.3-24.8-1.4-26.7-.2-.6.4-1 2.4-.9 4.5.4 7.2.3 7 1.3 5.4.7-1.1 1.3-1.2 2.3-.4.7.6 3.1 1 5.3.9l4.1-.2-.2 6.5c-.2 8.4 0 8-2.9 7.6-1.4-.1-2.5.3-2.5.9 0 .6-.5.4-1-.4s-1-1-1-.5c0 1.2-4 1.3-5.8.1-.7-.4-1.2-.4-1.2-.1 0 .4-1.3-.7-3-2.5-2.8-3-3.4-4.3-3.1-6.3 0-.4-.3-.7-.8-.7-1.1 0-.9-1.9.3-3.9.6-.9.5-1.2-.1-.8-1.2.7-1.2-15.7-.1-16.9.4-.4.3-1.3-.4-2.1-.8-1.1-.8-1.7.2-2.6 1-1 1.1-.9.5.2-.5.9-.4 1.2.3.7.6-.4.9-1.3.6-2.1-.3-.8.4-2.4 1.5-3.6 1.2-1.3 2.1-2.6 2.1-2.9 0-1.2 7.6-1.6 11.2-.6 2.4.7 4.5 3.8 4 5.8-.1.5.3.8.9.8.5 0 .8.3.6.7-.3.5.1 1.4.9 2.1 1.1 1 1.4 1 1.4 0 0-.8.3-.9.8-.3 1 1.6 7.2 1.7 9 .3 1.3-1.1 1.4-1.1.8.1-.6.9-.5 1.2.5.9.8-.3 1.3-1.1 1.1-1.8-.2-1.1.1-1 1.5 0 1 .8 1.5 1.1 1.1.6-.4-.5-.2-1.8.4-2.9.8-1.6.8-1.9-.4-1.4-1.1.4-1.4-.2-1.3-2.4.1-1.6-.2-2.9-.7-2.9-.4 0-.8-.6-.8-1.3 0-.7-.9-1.9-1.9-2.7-1.1-.7-1.7-1.8-1.4-2.3.3-.6.1-.7-.6-.3-.6.4-1.4 0-1.7-.8-.3-.9-1-1.3-1.5-1-.5.3-.9.1-.9-.4 0-.6-.7-1.3-1.6-1.6-.9-.4-1.3-.2-.8.5.3.6-.5.3-1.9-.6-1.5-.9-3.1-1.4-3.7-1-.5.3-1 .2-1-.2 0-1.1-15-1.2-15.6-.1zm-53.8 14.9c.4.7-.5.9-2.7.5-1.9-.3-4 0-4.8.7-1.2.9-1.3.9-.7-.1.4-.6.2-1.2-.4-1.2-.6 0-1.3.6-1.6 1.4-.3.8-1.1 1.2-1.9 1-.7-.3-2.9 1.2-4.9 3.3l-3.6 3.8-4.2-4.4c-2.3-2.5-3.9-3.6-3.5-2.5.6 1.6.5 1.7-.5.4-1.4-1.7-9.8-2.4-9.8-.9 0 .6-.8.5-2-.1-1.6-.8-2.2-.8-2.6.4-.3.8-1.5 1.6-2.6 1.9-1.1.3-1.7 1-1.3 1.7.3.6.3 1-.2.9-1.8-.3-3.3.1-3.1 1 .2.4-.8 1.8-2.2 3-1.4 1.3-1.8 2-1 1.6 1-.4.9-.2-.2.8-1 .8-1.5 1.7-1.1 2 .3.4.2.7-.3.7s-1.1 1.2-1.2 2.7c-.1 1.6-.7 2.9-1.2 3.1-.6.2-.6 1 0 2.3.7 1.3.7 1.9 0 1.9-.5 0-1 .5-1 1.1 0 .5.4.8.9.5 1-.7.9 2-.2 3-.3.4-.3 1.4.2 2.3.4.9.7 2.3.6 3.1 0 .8.5 2.1 1.2 2.8.7.8 1.1 1.7.8 2.2-.3.4.2 1.1 1.1 1.4.9.4 1.4 1.3 1 2.2-.3.8-.2 1.2.4.9.6-.3 1.3.1 1.6.9.3.9 1.2 1.6 2 1.6s1.4.4 1.4 1c0 .5.8 1 1.8 1s2.3.5 3 1.2c.9.9 1.2.9 1.2 0 0-.7.7-1.2 1.6-1.2 1 0 1.4-.6 1.1-1.4-.4-.9 0-1.3 1.1-1.1 2.5.4 3.4-.5 2.2-2-.8-1-.8-1.5.1-2.1.8-.5.9-.3.4.6-.5.9-.4 1.1.4.6.6-.4.8-1.3.4-1.9-1.1-1.8-1.4-4.9-.5-4.3.5.3.4-1-.2-2.9-.8-2.6-1.4-3.1-2.3-2.3-.9.7-1.3.7-1.3-.1 0-.6-.7-1.1-1.5-1.1s-1.4-.3-1.4-.8c.1-.4 0-1-.1-1.5-.1-.4-.4-1.2-.5-1.7-.1-.6-.3-1.1-.4-1.3-.9-1-.9-4.7-.1-4.7.6 0 1-.6 1-1.4 0-.9.9-1.3 2.5-1.1 1.4.1 2.5-.3 2.5-.9 0-.7.3-.7.8-.1.4.6 1.9 1.6 3.4 2.4 1.5.8 2.5 1.8 2.2 2.3-.3.4 0 .8.6.8s.8.4.5 1c-.3.5-.1 1.8.4 2.9.7 1.2.7 2.1.1 2.3-1.8.6.5 6.3 2.6 6.3 1 0 2.4.4 3.1.8 1.4.9 5.5-3.2 4.6-4.6-.3-.6-.1-.7.5-.3 2 1.2 3.8-2 3.5-6.5-.1-3.1.3-4.8 1.6-6 1.9-1.8 9.1-2.4 9.1-.8 0 .5.6.9 1.3.9 1.6 0 4.8 6.8 3.5 7.6-.5.3-.4 1.2.3 2 .9 1.1.9 1.4 0 1.4-.7 0-1 .4-.7.9.7 1.1-2.2 2.3-3.5 1.6-.5-.4-.6.1-.3.9.3.9.1 1.6-.6 1.6-.6 0-.9.4-.5.9.3.5-.3 1.1-1.2 1.3-1.5.3-1.8 1.5-1.9 7.1 0 5 .3 6.7 1.4 6.7.7 0 1-.5.7-1.1-.4-.6.3-.5 1.5.3 1.8 1 2.4 1 2.7 0 .3-.6 1.3-1.2 2.4-1.2 1 0 1.9-.4 1.9-.9s.9-1.3 2-1.6c1.1-.3 2-1.3 2-2.1s.5-1.2 1.1-.9c.6.4 1.3-.2 1.6-1.4.3-1.2.9-2.1 1.4-2.1.5 0 .9-.7.9-1.5s.5-1.5 1.1-1.5c.6 0 .9-.6.6-1.3-.3-.7.1-2.1.9-3.2 1.1-1.5 1.1-2.1.1-3.4-.8-1-.9-1.3 0-.8.6.4 1.4.3 1.8-.3.3-.5 0-1-.7-1-1 0-1-.2.1-.9.8-.5.9-1.1.3-1.5-.7-.4-.7-1.7-.2-3.6.6-1.9.5-3.2-.2-3.6-.7-.5-.8-.2-.3.6.5.9.4 1.1-.4.6-.8-.5-.9-1.2-.2-2 .6-.7.6-1.7.1-2.6-.5-.8-.6-1.8-.3-2.4.4-.5.1-.6-.7-.1-1 .6-1.2.4-.7-.9.4-1 .3-1.5-.3-1.1-.6.3-1 0-1-.8 0-1.8-3.4-5.7-4.9-5.7-.6 0-1.1-.5-1.1-1 0-.6-.9-1-2-1s-2-.4-2-.9-.7-1.2-1.6-1.5c-.9-.3-1.2-.2-.8.5zm139.8 2.1c-.3.4-1.1.5-1.8.2-.8-.3-1.7-.1-2.1.5-.3.6-1.5 1.1-2.6 1.1s-1.7.4-1.4 1c.3.5 0 1-.7 1-1.5 0-6.8 5.6-6.8 7.2 0 .5-.4.7-.9.3-.6-.3-.8.4-.6 1.5.2 1.1-.1 2-.6 2-.6 0-.8.4-.4.9.3.5.1 1.3-.5 1.6-.6.4-.8 1.6-.4 2.7.3 1.1.2 1.8-.2 1.5-.5-.3-.8 1.1-.7 3.1.1 2.1.2 3.7.3 3.7.1 0 .3 2 .4 4.4.1 2.5.7 4.6 1.4 4.9.7.2 1 .8.6 1.3-.3.5 0 .9.5.9.6 0 1.1.6 1.1 1.3 0 .7.9 2 2 3 1.2 1 1.8 2.3 1.4 2.9-.5.7-.3.8.6.3.8-.5 1.8-.2 2.4.6.6.8 2.2 2 3.5 2.7 1.9 1.1 2.2 1.1 1.6 0-.6-1-.5-1.1.6-.1 2.8 2.7 24.9.8 24.9-2 0-.5.5-.5 1-.2.6.3 1-.2 1-1.1 0-1 .3-1.4.6-1.1.9.8 6.4-6.5 5.8-7.5-.3-.5-.1-.8.4-.8.9 0 1.2-1.1 1.5-6 .1-1.7.6-3 1-3 .5 0 .5-.6 0-1.3-1-1.6-1.3-3.8-.5-3.3 1.1.6.6-5.5-.4-6.2-.5-.4-.9-1.4-.9-2.2.1-.8-.3-2.1-.8-2.8-.5-.6-.6-1.2-.1-1.2.5-.1-.2-.7-1.6-1.5-1.4-.8-1.9-1.4-1.2-1.5 1.8 0-1.1-3-2.9-3-.7 0-.9-.3-.6-.7.8-.7-3.8-3.3-5.9-3.3-.8 0-1.4-.4-1.4-.9s-.9-1.1-2-1.4c-1.1-.3-2 0-2 .6 0 .8-.3.8-.8.2-.8-1.1-11.1-1.4-11.8-.3zm9.6 12.4c0-.5.9.1 2 1.4 1.1 1.2 1.7 2.7 1.4 3.1-.3.5 0 .9.6.9.7 0 .9.8.5 2.1-.5 1.5-.4 1.9.4 1.5 1.4-.9 1.4 0 .1 2.5-.8 1.3-.7 1.9 0 1.9s.8.6.1 1.8c-.6 1-.6 2.4 0 3.4.6 1.1.4 2-.6 2.8-.8.7-1.2 1.6-.9 2.1.3.5-.3.9-1.3.9-1.3 0-1.4.3-.5.8.8.6.1 1.2-2.3 1.9-2.1.7-3.7.7-4.1.2-.3-.5-.9-.7-1.4-.4-1.1.7-4.1-3.5-3.4-4.7.3-.4.1-.8-.4-.8-.6 0-1.2-1.8-1.4-4-.2-2.3.1-4 .7-4 .5 0 .3-.5-.5-1-1-.6-1.1-1-.3-1 .9 0 1-.7.3-2.5s-.6-2.4.2-2.2c.7.1 1.2-.5 1.3-1.3.1-4.1 6.7-8.3 8.7-5.5.4.5.8.6.8.1z"/></svg>